<svg width="560" height="560" viewBox="220 220 560 560" fill="none" xmlns="http://www.w3.org/2000/svg">
<rect width="1000" height="1000" fill="black"/>
<rect x="457.971" y="226" width="42.902" height="43.6681" fill="white"/>
<rect x="412.004" y="269.672" width="132.536" height="43.6681" fill="white"/>
<rect x="368.336" y="313.336" width="219.873" height="43.6681" fill="white"/>
<rect x="324.668" y="357.008" width="307.209" height="43.6681" fill="white"/>
<rect x="325.434" y="400.672" width="132.536" height="43.6681" fill="white"/>
<rect x="457.971" y="400.672" width="86.57" height="43.6681" fill="#FCD12D"/>
<rect x="500.873" y="226" width="43.6681" height="43.6681" fill="#C9C9C9"/>
<rect x="544.541" y="269.672" width="43.6681" height="43.6681" fill="#C9C9C9"/>
<rect x="588.209" y="313.336" width="43.6681" height="43.6681" fill="#C9C9C9"/>
<rect x="631.877" y="357.008" width="44.4342" height="87.3361" fill="#C9C9C9"/>
<rect x="676.311" y="444.344" width="43.6681" height="153.987" fill="#C9C9C9"/>
<rect x="631.877" y="598.328" width="44.4342" height="88.1022" fill="#C9C9C9"/>
<rect x="587.443" y="641.992" width="44.4342" height="88.1022" fill="#C9C9C9"/>
<rect x="544.541" y="685.664" width="42.902" height="87.3361" fill="#C9C9C9"/>
<rect x="412.77" y="729.328" width="131.77" height="43.6681" fill="#C9C9C9"/>
<rect x="369.869" y="685.664" width="44.4342" height="43.6681" fill="#C9C9C9"/>
<rect x="325.434" y="641.992" width="44.4342" height="44.4342" fill="#C9C9C9"/>
<rect x="544.541" y="444.344" width="43.6681" height="110.319" fill="#D9B01A"/>
<rect x="457.971" y="554.656" width="86.57" height="43.6681" fill="#D9B01A"/>
<rect x="412.004" y="444.344" width="45.9664" height="43.6681" fill="#FCD12D"/>
<rect x="500.873" y="444.344" width="43.6681" height="43.6681" fill="#FCD12D"/>
<rect x="457.971" y="444.344" width="42.902" height="43.6681" fill="white"/>
<rect x="412.004" y="488.008" width="132.536" height="66.6513" fill="#FCD12D"/>
<rect x="544.541" y="400.672" width="87.3361" height="43.6681" fill="white"/>
<rect x="281" y="444.344" width="131.004" height="43.6681" fill="white"/>
<rect x="281" y="488.008" width="131.004" height="43.6681" fill="white"/>
<rect x="281" y="554.656" width="176.971" height="43.6681" fill="white"/>
<rect x="325.434" y="598.328" width="306.443" height="43.6681" fill="white"/>
<rect x="369.869" y="641.992" width="218.34" height="43.6681" fill="white"/>
<rect x="414.303" y="685.664" width="130.238" height="43.6681" fill="white"/>
<rect x="544.541" y="554.656" width="131.77" height="43.6681" fill="white"/>
<rect x="588.209" y="444.344" width="88.1022" height="110.319" fill="white"/>
<rect x="281" y="531.68" width="131.004" height="22.9832" fill="white"/>
</svg>
